<svg version="1.0" xmlns="http://www.w3.org/2000/svg" width="100%" height="100%" viewBox="215 50 170 170" preserveAspectRatio="xMidYMid meet"> 
  <!-- ORIGINAL LOGO PATHS ONLY (CROPPED SQUARISH BOX FOR EMBLEM ONLY) -->
  <g transform="translate(0.000000,327.000000) scale(0.050000,-0.050000)" fill="#000000" stroke="none"> 
    <path d="M5744 5351 c-681 -253 -822 -1063 -272 -1566 92 -84 173 -170 179 -189 10 -29 24 -18 75 58 35 52 111 126 169 164 l104 70 -108 33 c-634 196 -534 1157 121 1163 251 3 169 -237 -121 -357 l-91 -37 0 -120 c0 -66 -18 -196 -41 -288 -48 -202 -49 -201 96 -137 114 51 203 79 352 109 73 15 80 23 113 129 124 404 367 375 369 -43 1 -293 -117 -476 -451 -701 -196 -132 -223 -164 -325 -386 -49 -106 -112 -200 -195 -289 -150 -160 -197 -257 -196 -404 l1 -110 26 72 c41 109 91 203 137 253 l41 45 55 -100 c30 -56 65 -125 77 -155 22 -58 15 107 -11 247 -10 52 1 76 69 154 44 51 130 178 191 282 61 104 140 209 175 234 l63 45 -17 -58 c-36 -128 -21 -173 98 -281 85 -76 120 -126 141 -196 32 -106 83 -192 113 -192 11 0 6 27 -10 59 -33 62 -42 201 -15 201 48 0 189 -156 246 -271 76 -154 87 -160 68 -35 -15 103 -81 248 -148 324 -23 26 -42 57 -42 68 0 37 284 3 390 -47 55 -26 109 -51 120 -56 11 -4 -6 20 -39 54 -89 96 -213 146 -430 174 -446 58 -494 205 -172 520 292 285 389 681 252 1029 -106 268 -189 278 -379 45 -101 -124 -102 -124 -196 -37 -83 75 -87 52 49 232 69 92 85 186 40 246 -77 102 -451 127 -671 45z m533 -608 l88 -75 -46 -89 c-25 -49 -56 -124 -69 -167 -23 -77 -27 -80 -162 -111 -77 -18 -150 -40 -164 -48 -43 -27 -26 7 49 97 40 48 89 91 110 97 53 13 68 70 29 109 -41 42 -94 14 -114 -61 -13 -50 -138 -222 -151 -209 -4 4 4 85 16 181 l22 174 83 37 c45 21 109 61 142 89 75 64 64 66 167 -24z"/> 
    <path d="M6584 4232 c-44 -121 -177 -235 -418 -358 -272 -139 -322 -180 -446 -364 -118 -175 -172 -204 -440 -239 -222 -29 -340 -77 -441 -182 l-69 -71 124 64 c98 50 157 66 275 74 174 11 174 11 82 -109 -78 -102 -137 -259 -127 -341 5 -50 13 -41 72 78 59 120 199 276 248 276 32 0 15 -127 -27 -195 -42 -68 -42 -69 -3 -48 50 27 100 101 118 176 8 31 72 117 143 191 71 73 166 190 212 259 82 125 135 169 406 337 142 88 258 232 298 372 37 125 31 186 -7 80z"/> 
    <path d="M6090 3077 c-53 -118 -55 -132 -33 -238 36 -174 23 -305 -48 -489 -14 -36 -10 -35 37 8 72 65 137 209 163 357 l22 126 109 -66 c92 -55 120 -86 175 -195 l65 -130 0 100 c-1 137 -60 233 -230 371 -103 84 -148 136 -171 198 l-32 85 -57 -127z"/> 
  </g> 
</svg>
